<svg width="9" height="13" viewBox="0 0 9 13" fill="none" xmlns="http://www.w3.org/2000/svg">
<path d="M8.45312 6.28125C8.45312 7.20312 8.38021 8.02865 8.23438 8.75781C8.09375 9.48177 7.86979 10.0964 7.5625 10.6016C7.25521 11.1068 6.85417 11.4922 6.35938 11.7578C5.86458 12.0234 5.26562 12.1562 4.5625 12.1562C3.68229 12.1562 2.95573 11.9245 2.38281 11.4609C1.8099 10.9922 1.38542 10.3203 1.10938 9.44531C0.833333 8.5651 0.695312 7.51042 0.695312 6.28125C0.695312 5.05208 0.820312 4 1.07031 3.125C1.32552 2.24479 1.73698 1.57031 2.30469 1.10156C2.8724 0.632812 3.625 0.398438 4.5625 0.398438C5.44792 0.398438 6.17708 0.632812 6.75 1.10156C7.32812 1.5651 7.75521 2.23698 8.03125 3.11719C8.3125 3.99219 8.45312 5.04688 8.45312 6.28125ZM2.54688 6.28125C2.54688 7.24479 2.60938 8.04948 2.73438 8.69531C2.86458 9.34115 3.07812 9.82552 3.375 10.1484C3.67188 10.4661 4.06771 10.625 4.5625 10.625C5.05729 10.625 5.45312 10.4661 5.75 10.1484C6.04688 9.83073 6.26042 9.34896 6.39062 8.70312C6.52604 8.05729 6.59375 7.25 6.59375 6.28125C6.59375 5.32292 6.52865 4.52083 6.39844 3.875C6.26823 3.22917 6.05469 2.74479 5.75781 2.42188C5.46094 2.09375 5.0625 1.92969 4.5625 1.92969C4.0625 1.92969 3.66406 2.09375 3.36719 2.42188C3.07552 2.74479 2.86458 3.22917 2.73438 3.875C2.60938 4.52083 2.54688 5.32292 2.54688 6.28125Z" fill="#232321"/>
</svg>
