<svg width="190" height="20" viewBox="0 0 190 20" fill="none" xmlns="http://www.w3.org/2000/svg">
<path fill-rule="evenodd" clip-rule="evenodd" d="M2 4.75C2 4.55109 2.07902 4.36032 2.21967 4.21967C2.36032 4.07902 2.55109 4 2.75 4H17.25C17.4489 4 17.6397 4.07902 17.7803 4.21967C17.921 4.36032 18 4.55109 18 4.75C18 4.94891 17.921 5.13968 17.7803 5.28033C17.6397 5.42098 17.4489 5.5 17.25 5.5H2.75C2.55109 5.5 2.36032 5.42098 2.21967 5.28033C2.07902 5.13968 2 4.94891 2 4.75ZM2 10C2 9.80109 2.07902 9.61032 2.21967 9.46967C2.36032 9.32902 2.55109 9.25 2.75 9.25H17.25C17.4489 9.25 17.6397 9.32902 17.7803 9.46967C17.921 9.61032 18 9.80109 18 10C18 10.1989 17.921 10.3897 17.7803 10.5303C17.6397 10.671 17.4489 10.75 17.25 10.75H2.75C2.55109 10.75 2.36032 10.671 2.21967 10.5303C2.07902 10.3897 2 10.1989 2 10ZM2 15.25C2 15.0511 2.07902 14.8603 2.21967 14.7197C2.36032 14.579 2.55109 14.5 2.75 14.5H17.25C17.4489 14.5 17.6397 14.579 17.7803 14.7197C17.921 14.8603 18 15.0511 18 15.25C18 15.4489 17.921 15.6397 17.7803 15.7803C17.6397 15.921 17.4489 16 17.25 16H2.75C2.55109 16 2.36032 15.921 2.21967 15.7803C2.07902 15.6397 2 15.4489 2 15.25Z" fill="black"/>
<g clip-path="url(#clip0_183_2463)">
<path d="M130.074 20.0001C129.871 20.0001 129.696 19.926 129.549 19.7779C129.402 19.6297 129.328 19.4538 129.328 19.2501V1.30566C129.328 1.10196 129.402 0.926034 129.549 0.777886C129.696 0.629738 129.871 0.555664 130.074 0.555664H135.707C135.91 0.555664 136.085 0.629738 136.232 0.777886C136.379 0.926034 136.453 1.10196 136.453 1.30566V19.2501C136.453 19.4538 136.379 19.6297 136.232 19.7779C136.085 19.926 135.91 20.0001 135.707 20.0001H130.074Z" fill="#232321"/>
<path d="M110.746 19.7223C110.543 19.7223 110.368 19.6482 110.221 19.5001C110.074 19.3519 110 19.176 110 18.9723V1.02783C110 0.824128 110.074 0.648202 110.221 0.500054C110.368 0.351906 110.543 0.277832 110.746 0.277832H116.02C116.223 0.277832 116.397 0.351906 116.545 0.500054C116.692 0.648202 116.766 0.824128 116.766 1.02783V6.52783L119.886 0.888943C119.978 0.740795 120.11 0.601906 120.288 0.472276C120.463 0.342647 120.696 0.277832 120.991 0.277832H127.094C127.259 0.277832 127.4 0.33956 127.523 0.456844C127.643 0.577215 127.701 0.71919 127.701 0.888943C127.701 1.00005 127.673 1.10191 127.618 1.1945L122.648 9.58339L128.088 18.8056C128.143 18.8797 128.171 18.9815 128.171 19.1112C128.171 19.2778 128.109 19.4229 127.993 19.5433C127.873 19.6636 127.732 19.7223 127.563 19.7223H121.267C120.899 19.7223 120.626 19.6359 120.454 19.4568C120.279 19.2809 120.171 19.1575 120.135 19.0834L116.766 13.0278V18.9723C116.766 19.176 116.692 19.3519 116.545 19.5001C116.397 19.6482 116.223 19.7223 116.02 19.7223H110.746Z" fill="#232321"/>
<path d="M146.764 20C144.997 20 143.432 19.7407 142.07 19.2222C140.708 18.7037 139.624 17.8889 138.824 16.7778C138.023 15.6667 137.584 14.2315 137.513 12.4722C137.495 11.713 137.486 10.8981 137.486 10.0278C137.486 9.15741 137.495 8.32407 137.513 7.52778C137.587 5.80556 138.032 4.38889 138.851 3.27778C139.67 2.16667 140.766 1.34259 142.137 0.805556C143.509 0.268518 145.052 0 146.764 0C147.943 0 149.078 0.135802 150.176 0.401235C151.272 0.669753 152.26 1.09259 153.143 1.66667C154.027 2.24074 154.73 2.97839 155.254 3.87346C155.779 4.77161 156.049 5.85185 156.071 7.11111C156.071 7.27778 156.009 7.42284 155.893 7.54321C155.773 7.66358 155.632 7.72222 155.463 7.72222H149.83C149.535 7.72222 149.317 7.66358 149.179 7.54321C149.041 7.42284 148.918 7.21605 148.808 6.91667C148.605 6.32407 148.329 5.92593 147.979 5.72222C147.63 5.51852 147.215 5.41667 146.737 5.41667C146.129 5.41667 145.644 5.58025 145.285 5.90432C144.926 6.22839 144.727 6.8179 144.69 7.66667C144.635 9.18519 144.635 10.7407 144.69 12.3333C144.727 13.1852 144.926 13.7747 145.285 14.0957C145.644 14.4198 146.129 14.5833 146.737 14.5833C147.215 14.5833 147.633 14.4722 147.992 14.25C148.351 14.0278 148.621 13.6389 148.808 13.0833C148.9 12.7685 149.02 12.5556 149.167 12.4444C149.314 12.3333 149.535 12.2778 149.83 12.2778H155.463C155.629 12.2778 155.77 12.3395 155.893 12.4568C156.012 12.5772 156.071 12.7191 156.071 12.8889C156.052 14.1481 155.782 15.2284 155.254 16.1265C154.73 17.0247 154.027 17.7623 153.143 18.3333C152.26 18.9074 151.269 19.3302 150.176 19.5957C149.078 19.8642 147.943 20 146.764 20Z" fill="#232321"/>
<path d="M172.385 18.8056L166.945 9.58339L171.916 1.1945C171.971 1.10191 171.998 1.00005 171.998 0.888943C171.998 0.722276 171.94 0.580301 171.82 0.459931C171.701 0.33956 171.557 0.277832 171.391 0.277832H165.288C164.993 0.277832 164.76 0.342647 164.585 0.472276C164.411 0.601906 164.276 0.740795 164.183 0.888943L161.422 5.87968L161.063 6.52783V1.02783C161.063 0.824128 160.989 0.648202 160.842 0.500054C160.695 0.351906 160.52 0.277832 160.317 0.277832H155.043C154.84 0.277832 154.666 0.351906 154.518 0.500054C154.5 0.521659 154.481 0.540178 154.463 0.561783C154.445 0.583388 154.429 0.604992 154.417 0.626597C154.402 0.648202 154.389 0.672894 154.377 0.694499C154.365 0.71919 154.356 0.740795 154.346 0.765486C155.298 1.42289 156.077 2.25623 156.657 3.25005C157.286 4.3303 157.617 5.62351 157.639 7.09265C157.639 7.60191 157.449 8.06487 157.102 8.41672C156.752 8.76549 156.292 8.95684 155.804 8.95684H154.297V11.0433H155.804C156.292 11.0433 156.752 11.2346 157.099 11.5834C157.449 11.9383 157.639 12.4013 157.639 12.8889C157.617 14.3766 157.286 15.6698 156.657 16.7501C156.077 17.7439 155.298 18.5772 154.346 19.2346C154.356 19.2593 154.365 19.284 154.377 19.3056C154.402 19.3519 154.429 19.3982 154.463 19.4383C154.481 19.4599 154.5 19.4784 154.518 19.5001C154.666 19.6482 154.84 19.7223 155.043 19.7223H160.317C160.52 19.7223 160.695 19.6482 160.842 19.5001C160.989 19.3519 161.063 19.176 161.063 18.9723V13.0278L161.422 13.6729L164.432 19.0834C164.469 19.1575 164.576 19.284 164.751 19.4599C164.926 19.6359 165.196 19.7223 165.564 19.7223H171.86C172.026 19.7223 172.17 19.6636 172.29 19.5433C172.41 19.4229 172.468 19.2778 172.468 19.1112C172.468 18.9815 172.44 18.8797 172.385 18.8056Z" fill="#232321"/>
<path d="M180.832 20C178.788 20 177.104 19.7222 175.778 19.1667C174.453 18.6111 173.459 17.8796 172.796 16.9722C172.133 16.0648 171.783 15.1019 171.747 14.0833C171.747 13.9167 171.805 13.7747 171.925 13.6512C172.044 13.5309 172.185 13.4722 172.351 13.4722H177.598C177.892 13.4722 178.116 13.5123 178.276 13.5957C178.432 13.679 178.601 13.7963 178.788 13.9414C178.972 14.071 179.16 14.1883 179.353 14.287C179.546 14.3889 179.767 14.463 180.016 14.5093C180.264 14.5556 180.534 14.5802 180.832 14.5802C181.458 14.5802 181.958 14.5093 182.335 14.3704C182.713 14.2315 182.903 14.0432 182.903 13.8025C182.903 13.5802 182.796 13.3951 182.584 13.2469C182.372 13.0988 182.007 12.966 181.492 12.8457C180.976 12.7253 180.258 12.608 179.338 12.5C177.883 12.2963 176.622 11.9537 175.554 11.4722C174.487 10.9907 173.661 10.3302 173.084 9.48457C172.504 8.64198 172.216 7.60802 172.216 6.3858C172.216 5.12654 172.569 4.01543 173.278 3.05247C173.986 2.08951 174.971 1.33951 176.232 0.802469C177.494 0.268518 178.963 0 180.639 0C182.019 0 183.244 0.179012 184.311 0.540123C185.379 0.901235 186.281 1.37346 187.018 1.95679C187.754 2.54012 188.315 3.16667 188.702 3.83333C189.089 4.5 189.291 5.13889 189.31 5.75C189.31 5.91667 189.248 6.06173 189.132 6.1821C189.012 6.30247 188.877 6.36111 188.73 6.36111H183.207C182.949 6.36111 182.74 6.32407 182.587 6.25C182.43 6.17593 182.268 6.06481 182.102 5.91667C182.01 5.82407 181.838 5.71914 181.59 5.59568C181.341 5.47531 181.025 5.41667 180.635 5.41667C180.175 5.41667 179.838 5.48765 179.629 5.62654C179.417 5.76543 179.31 5.95679 179.31 6.19444C179.31 6.36111 179.393 6.51852 179.558 6.66667C179.724 6.81482 180.028 6.94444 180.47 7.05556C180.912 7.16667 181.547 7.27778 182.375 7.38889C184.216 7.61111 185.692 7.96914 186.809 8.45679C187.923 8.94753 188.733 9.60185 189.239 10.4167C189.745 11.2315 190 12.2407 190 13.4444C190 14.7963 189.598 15.963 188.797 16.9444C187.996 17.9259 186.904 18.679 185.523 19.2068C184.143 19.7346 182.581 20 180.832 20Z" fill="#232321"/>
</g>
<defs>
<clipPath id="clip0_183_2463">
<rect width="80" height="20" fill="white" transform="translate(110)"/>
</clipPath>
</defs>
</svg>
